HIERARCHY
ROOT SpineBase
{
  OFFSET 0.000000 0.000000 0.000000
  CHANNELS 6 Xposition Yposition Zposition Zrotation Xrotation Yrotation
  JOINT SpineMid
  {
    OFFSET 0.000000 36.162810 0.000000
    CHANNELS 3 Zrotation Xrotation Yrotation
    JOINT SpineShoulder
    {
      OFFSET 0.268689 26.721532 -0.595642
      CHANNELS 3 Zrotation Xrotation Yrotation
      JOINT Neck
      {
        OFFSET 0.081158 8.798454 -0.560772
        CHANNELS 3 Zrotation Xrotation Yrotation
        JOINT Head
        {
          OFFSET -5.917503 10.145275 7.648318
          CHANNELS 3 Zrotation Xrotation Yrotation
          End Site
          {
            OFFSET 0 0 0
          }
        }
      }
      JOINT ShoulderLeft
      {
        OFFSET -12.885314 -2.966241 -16.489222
        CHANNELS 3 Zrotation Xrotation Yrotation
        JOINT ElbowLeft
        {
          OFFSET 15.984526 -15.852623 12.957738
          CHANNELS 3 Zrotation Xrotation Yrotation
          JOINT WristLeft
          {
            OFFSET 5.689034 -23.392249 10.809599
            CHANNELS 3 Zrotation Xrotation Yrotation
            JOINT HandLeft
            {
              OFFSET -0.243485 -6.961544 -4.763660
              CHANNELS 3 Zrotation Xrotation Yrotation
              JOINT HandTipLeft
              {
                OFFSET 0.209345 -0.365467 -1.613513
                CHANNELS 3 Zrotation Xrotation Yrotation
                End Site
                {
                  OFFSET 0 0 0
                }
              }
              JOINT ThumbLeft
              {
                OFFSET -0.090070 0.392425 -1.668358
                CHANNELS 3 Zrotation Xrotation Yrotation
                End Site
                {
                  OFFSET 0 0 0
                }
              }
            }
          }
        }
      }
      JOINT ShoulderRight
      {
        OFFSET -0.004020 -6.232058 -13.931710
        CHANNELS 3 Zrotation Xrotation Yrotation
        JOINT ElbowRight
        {
          OFFSET -4.172839 -26.197956 -8.414924
          CHANNELS 3 Zrotation Xrotation Yrotation
          JOINT WristRight
          {
            OFFSET -8.361870 -22.014060 -5.614725
            CHANNELS 3 Zrotation Xrotation Yrotation
            JOINT HandRight
            {
              OFFSET -1.214297 -7.812202 1.773860
              CHANNELS 3 Zrotation Xrotation Yrotation
              JOINT HandTipRight
              {
                OFFSET -3.271618 -6.240317 0.709164
                CHANNELS 3 Zrotation Xrotation Yrotation
                End Site
                {
                  OFFSET 0 0 0
                }
              }
              JOINT ThumbRight
              {
                OFFSET -2.846044 -1.726553 -5.321567
                CHANNELS 3 Zrotation Xrotation Yrotation
                End Site
                {
                  OFFSET 0 0 0
                }
              }
            }
          }
        }
      }
    }
  }
  JOINT HipLeft
  {
    OFFSET -6.659864 1.630928 0.918789
    CHANNELS 3 Zrotation Xrotation Yrotation
    JOINT KneeLeft
    {
      OFFSET 1.928053 -43.205723 5.191530
      CHANNELS 3 Zrotation Xrotation Yrotation
      JOINT AnkleLeft
      {
        OFFSET -3.168996 -32.407992 2.072889
        CHANNELS 3 Zrotation Xrotation Yrotation
        JOINT FootLeft
        {
          OFFSET -6.393944 -0.109267 -15.862259
          CHANNELS 3 Zrotation Xrotation Yrotation
          End Site
          {
            OFFSET 0 0 0
          }
        }
      }
    }
  }
  JOINT HipRight
  {
    OFFSET 5.675425 0.350930 -8.318029
    CHANNELS 3 Zrotation Xrotation Yrotation
    JOINT KneeRight
    {
      OFFSET -26.889455 -32.278776 -2.860795
      CHANNELS 3 Zrotation Xrotation Yrotation
      JOINT AnkleRight
      {
        OFFSET 4.341803 -38.860976 -2.647729
        CHANNELS 3 Zrotation Xrotation Yrotation
        JOINT FootRight
        {
          OFFSET -5.901948 -8.040743 0.549112
          CHANNELS 3 Zrotation Xrotation Yrotation
          End Site
          {
            OFFSET 0 0 0
          }
        }
      }
    }
  }
}
MOTION
Frames: 5
Frame Time: 0.033333
19.521978 80.685159 282.089885 -3.697404 3.918368 44.951861 0.280623 -1.102267 -44.902215 0.281158 -0.222269 -0.086636 -11.096218 -8.179586 6.890660 0.000000 0.000000 0.000000 -1.635335 -0.677705 -0.802116 1.635304 -0.747995 0.199898 1.577160 10.171671 0.917021 -3.136801 -48.332301 17.115507 0.000000 0.000000 0.000000 0.000000 0.000000 0.000000 -1.421613 -2.876915 1.244486 -3.197933 -2.311840 1.210819 -1.913890 5.234757 -4.647577 12.326204 -4.426275 4.317638 0.000000 0.000000 0.000000 0.000000 0.000000 0.000000 4.921675 -15.676034 -42.786914 -0.518099 -2.790041 0.474556 -9.000498 4.157619 4.533797 0.000000 0.000000 0.000000 6.779020 -20.930348 -38.670689 -21.266299 7.483111 -2.392880 54.144336 50.026336 -78.332332 0.000000 0.000000 0.000000
19.462869 80.683464 282.068670 -3.597139 3.972474 44.958844 0.272664 -1.084051 -44.909277 0.243039 -0.175628 -0.085974 -11.733919 -8.491016 7.169669 0.000000 0.000000 0.000000 -1.063775 -1.225612 -0.734036 0.942747 -0.357502 0.079058 3.470121 16.760809 -0.615874 -3.416851 -57.374155 20.857114 0.000000 0.000000 0.000000 0.000000 0.000000 0.000000 -1.468956 -2.917963 1.228794 -3.119134 -2.255658 1.158457 -2.403878 6.010084 -4.733581 12.416347 -4.521336 4.203447 0.000000 0.000000 0.000000 0.000000 0.000000 0.000000 4.713645 -15.749373 -42.822378 -0.252631 -3.015260 0.551866 -7.683093 1.077555 5.517601 0.000000 0.000000 0.000000 6.688135 -20.941169 -38.670356 -21.288808 7.482611 -2.403631 54.269441 49.995289 -78.435000 0.000000 0.000000 0.000000
19.425637 80.699239 282.056826 -3.511020 4.032755 44.962699 0.287907 -1.081101 -44.911114 0.244566 -0.153128 -0.081283 -12.437612 -8.879469 7.386900 0.000000 0.000000 0.000000 -0.495444 -1.840402 -0.704997 0.244799 0.046342 0.009279 4.526293 16.624637 -1.338478 -3.284688 -57.034924 23.921864 0.000000 0.000000 0.000000 0.000000 0.000000 0.000000 -1.680778 -2.964879 1.240222 -2.948483 -2.200843 1.079870 -2.603513 6.590300 -4.768313 12.055620 -4.820817 4.128562 0.000000 0.000000 0.000000 0.000000 0.000000 0.000000 4.550545 -15.775372 -42.846915 -0.005215 -3.323118 0.635038 -4.570240 -5.768742 6.226280 0.000000 0.000000 0.000000 6.594057 -20.935075 -38.681357 -21.271708 7.462771 -2.410361 54.242190 50.024452 -78.466268 0.000000 0.000000 0.000000
19.409008 80.719533 282.058120 -3.442788 4.086059 45.020987 0.303735 -1.077460 -44.967462 0.250787 -0.133856 -0.076969 -13.050636 -9.272847 7.533575 0.000000 0.000000 0.000000 0.106673 -2.424482 -0.625075 -0.517547 0.467951 -0.105140 3.614654 17.160092 -0.590825 -3.083817 -55.378872 24.340698 0.000000 0.000000 0.000000 0.000000 0.000000 0.000000 -1.874569 -2.949575 1.244580 -2.807383 -2.195879 1.011213 -2.688436 6.799065 -4.763223 12.143433 -4.090243 3.679621 0.000000 0.000000 0.000000 0.000000 0.000000 0.000000 4.270110 -16.055422 -42.939517 -0.275496 -2.543763 0.515953 -3.140712 -8.974467 6.146098 0.000000 0.000000 0.000000 6.503804 -20.939631 -38.752894 -21.276835 7.436020 -2.408725 54.357570 49.996844 -78.559481 0.000000 0.000000 0.000000
19.403951 80.738825 282.073482 -3.393844 4.144080 45.087858 0.334650 -1.094717 -45.030539 0.266423 -0.122704 -0.071574 -13.599364 -9.677184 7.600402 0.000000 0.000000 0.000000 0.722268 -2.997709 -0.510854 -1.296178 0.886647 -0.234174 0.350943 5.498872 2.269478 -1.691848 -40.284353 22.731411 0.000000 0.000000 0.000000 0.000000 0.000000 0.000000 -2.082089 -2.948056 1.249649 -2.607455 -2.220538 0.943982 -2.572803 6.699154 -4.687074 11.671856 -4.176819 3.612775 0.000000 0.000000 0.000000 0.000000 0.000000 0.000000 4.102380 -15.993358 -43.040429 0.221660 -2.940612 0.619138 -7.204268 -0.859920 4.154468 0.000000 0.000000 0.000000 6.412801 -20.937782 -38.843496 -21.259438 7.414535 -2.399145 54.334558 50.006425 -78.567897 0.000000 0.000000 0.000000
